<?xml version="1.0" encoding="UTF-8" standalone="no"?>
<!-- Created with Inkscape (http://www.inkscape.org/) -->

<svg
   width="15.979342"
   height="15.857677"
   viewBox="0 0 15.979342 15.857677"
   version="1.1"
   id="SVGRoot"
   sodipodi:docname="divide.svg"
   inkscape:export-filename="divide.svg"
   inkscape:export-xdpi="94.199738"
   inkscape:export-ydpi="94.199738"
   xmlns:inkscape="http://www.inkscape.org/namespaces/inkscape"
   xmlns:sodipodi="http://sodipodi.sourceforge.net/DTD/sodipodi-0.dtd"
   xmlns="http://www.w3.org/2000/svg"
   xmlns:svg="http://www.w3.org/2000/svg">
  <sodipodi:namedview
     id="namedview1225"
     pagecolor="#ffffff"
     bordercolor="#000000"
     borderopacity="0.25"
     inkscape:showpageshadow="2"
     inkscape:pageopacity="0.0"
     inkscape:pagecheckerboard="0"
     inkscape:deskcolor="#d1d1d1"
     inkscape:document-units="px"
     showgrid="true"
     inkscape:zoom="0.25"
     inkscape:cx="30.0"
     inkscape:cy="30.0"
     inkscape:window-width="1366"
     inkscape:window-height="715"
     inkscape:window-x="-8"
     inkscape:window-y="-8"
     inkscape:window-maximized="0"
     inkscape:current-layer="layer1">
    <inkscape:grid
       type="xygrid"
       id="grid1231" />
  </sodipodi:namedview>
  <defs
     id="defs1220" />
  <g
     inkscape:label="Layer 1"
     inkscape:groupmode="layer"
     id="layer1"
     transform="translate(0.08044386,-0.16817544)">
    <path
       id="path2716"
       style="fill:#000000;stroke:#000000;stroke-width:1.503;stroke-dasharray:none"
       d="m 7.5308843,2.3439567 a 1.0625,1.109375 0 0 0 -1.0625,1.109375 1.0625,1.109375 0 0 0 1.0625,1.109375 1.0625,1.109375 0 0 0 1.0625,-1.109375 1.0625,1.109375 0 0 0 -1.0625,-1.109375 z M 15.997681,7.5138786 -0.02185011,7.5568473 Z M 7.6265874,10.43966 a 1.0625,1.109375 0 0 0 -0.1484375,0.002 1.0625,1.109375 0 0 0 -0.9765625,1.164062 1.0625,1.109375 0 0 0 1.0898437,1.050782 1.0625,1.109375 0 0 0 1.0332032,-1.109375 h -1.0625 L 8.6187749,11.427941 A 1.0625,1.109375 0 0 0 7.6265874,10.43966 Z" />
  </g>
</svg>
